HIERARCHY
ROOT Hips
{
     OFFSET 8.64328 97.39810 33.61210
     CHANNELS 6 Xposition Yposition Zposition Zrotation Xrotation Yrotation
     JOINT Spine
     {
          OFFSET -0.00000 11.89050 0.00000
          CHANNELS 3 Zrotation Xrotation Yrotation
          JOINT Spine1
          {
               OFFSET -0.00000 25.65740 0.12766
               CHANNELS 3 Zrotation Xrotation Yrotation
               JOINT HEad
               {
                    OFFSET -0.00000 8.73416 0.01134
                    CHANNELS 3 Zrotation Xrotation Yrotation
                    End Site
                    {
                         OFFSET -0.29000 12.77420 2.51395
                    }
               }
               JOINT LeftShoulder1
               {
                    OFFSET 8.99000 -0.36225 -0.22000
                    CHANNELS 3 Zrotation Xrotation Yrotation
                    JOINT LeftArm
                    {
                         OFFSET 10.28270 -0.00338 0.32212
                         CHANNELS 3 Zrotation Xrotation Yrotation
                         JOINT LeftForeArm
                         {
                              OFFSET 32.76690 0.09914 -1.42434
                              CHANNELS 3 Zrotation Xrotation Yrotation
                              JOINT LeftHand
                              {
                                   OFFSET 27.56430 0.08536 1.02216
                                   CHANNELS 3 Zrotation Xrotation Yrotation
                                   End Site
                                   {
                                        OFFSET 16.74430 -0.60000 1.50291
                                   }
                              }
                         }
                    }
               }
               JOINT RightShoulder
               {
                    OFFSET -8.99000 -0.36225 -0.22000
                    CHANNELS 3 Zrotation Xrotation Yrotation
                    JOINT RightArm
                    {
                         OFFSET -10.28270 -0.00338 0.32212
                         CHANNELS 3 Zrotation Xrotation Yrotation
                         JOINT RightForeArm
                         {
                              OFFSET -32.89710 0.09914 -1.42434
                              CHANNELS 3 Zrotation Xrotation Yrotation
                              JOINT RightHand
                              {
                                   OFFSET -27.49210 0.08536 1.02216
                                   CHANNELS 3 Zrotation Xrotation Yrotation
                                   End Site
                                   {
                                        OFFSET -16.63120 -0.60000 1.50291
                                   }
                              }
                         }
                    }
               }
          }
     }
     JOINT LeftUpLeg
     {
          OFFSET 8.94580 -8.66707 0.10165
          CHANNELS 3 Zrotation Xrotation Yrotation
          JOINT LeftLeg
          {
               OFFSET -0.00000 -44.42270 1.37270
               CHANNELS 3 Zrotation Xrotation Yrotation
               JOINT LeftFoot
               {
                    OFFSET -0.25355 -42.09240 -1.46059
                    CHANNELS 3 Zrotation Xrotation Yrotation
                    JOINT LeftToes
                    {
                         OFFSET -0.04000 -4.41509 8.49910
                         CHANNELS 3 Zrotation Xrotation Yrotation
                         End Site
                         {
                              OFFSET 0.08000 -0.04745 9.77979
                         }
                    }
               }
          }
     }
     JOINT RightUpLeg
     {
          OFFSET -8.94580 -8.66707 0.10165
          CHANNELS 3 Zrotation Xrotation Yrotation
          JOINT RightLeg
          {
               OFFSET 0.00000 -44.42270 1.37270
               CHANNELS 3 Zrotation Xrotation Yrotation
               JOINT RightFoot
               {
                    OFFSET 0.25355 -42.09240 -1.46059
                    CHANNELS 3 Zrotation Xrotation Yrotation
                    JOINT RightToes
                    {
                         OFFSET 0.04000 -4.41509 8.49910
                         CHANNELS 3 Zrotation Xrotation Yrotation
                         End Site
                         {
                              OFFSET -0.08000 -0.13745 9.77979
                         }
                    }
               }
          }
     }
}
MOTION
Frames: 14
Frame Time: 0.01667
2.74722 99.84550 67.84720 -1.04030 -3.62974 -33.89790 1.45056 3.00895 -0.21291 5.02073 6.02032 -0.31675 -5.47775 2.11561 16.90960 -0.00000 -0.00000 0.00000 -85.00530 -53.11850 -92.10110 -35.97390 23.06540 -66.10290 17.11180 5.77616 -23.98010 3.38118 0.67571 5.53412 63.26370 -7.56284 86.38290 26.14300 8.04692 55.71260 -14.83360 6.16053 25.51280 6.19908 -14.24910 -14.36730 -9.25620 26.16230 12.25110 3.65555 -5.64980 -0.04593 1.33735 -3.49806 -3.40613 -14.22440 8.78775 -18.83760 -3.75404 26.62980 0.76898 16.72730 -9.37697 0.07192 0.97829 -12.10120 2.20479 
2.73954 99.62410 67.05160 -1.04698 -3.53294 -33.50100 1.53495 2.79017 -0.36437 5.30461 5.56413 -0.59530 -4.70026 1.11629 16.64100 -0.00000 -0.00000 0.00000 -82.84360 -53.06940 -90.91860 -35.60440 22.01780 -66.17140 16.64070 5.90103 -23.95140 3.53551 0.66759 5.29249 63.23310 -7.74413 86.96340 26.03460 7.80258 55.66860 -13.87410 6.45995 25.17470 6.49190 -14.75490 -14.45700 -9.14069 26.06950 11.66670 4.10104 -5.50456 -0.05990 1.21247 -3.51315 -2.66205 -14.05080 7.49706 -19.72460 -4.64065 28.57180 2.36869 17.38030 -10.11260 0.19106 0.98625 -12.26210 2.41801 
2.72651 99.39970 66.15570 -1.19228 -3.50540 -33.21890 1.64077 2.60872 -0.49248 5.69674 5.18024 -0.83477 -3.83454 -0.07939 16.27190 -0.00000 -0.00000 0.00000 -80.91330 -53.11630 -89.95090 -35.23670 20.96210 -66.15860 16.10840 6.03209 -23.98570 3.67478 0.65178 4.97024 63.20630 -7.80683 87.64930 25.86450 7.38189 55.50470 -12.77170 6.74919 25.19960 6.83253 -15.24060 -14.56450 -8.93390 26.14330 11.20090 4.43533 -5.18680 -0.08052 1.13974 -3.70345 -2.02017 -13.96930 6.15538 -20.57520 -5.56763 30.84850 4.11852 17.79310 -10.74700 0.29680 0.97483 -12.17850 2.50199 
2.69499 99.17620 65.16460 -1.49551 -3.66391 -32.99400 1.78980 2.48443 -0.60987 6.16900 4.91791 -1.05562 -3.01043 -1.32149 15.80600 -0.00000 -0.00000 0.00000 -79.44740 -53.31350 -89.33330 -34.99390 20.06800 -66.02860 15.56120 6.16740 -24.01770 3.79103 0.62882 4.58204 63.11250 -7.75827 88.33260 25.63310 6.77432 55.23880 -11.57040 7.01763 25.68690 7.21740 -15.58160 -14.64610 -8.68463 26.34310 10.75840 4.53321 -4.75682 -0.10233 1.10430 -3.93448 -1.53845 -14.09080 4.96452 -21.20350 -6.32467 33.57320 5.30974 17.99170 -11.30430 0.38833 0.94635 -11.87130 2.44416 
2.63254 98.95330 64.10500 -1.89266 -4.05940 -32.70710 2.00481 2.39691 -0.74502 6.64928 4.75267 -1.29044 -2.32368 -2.47157 15.26400 -0.00000 -0.00000 0.00000 -78.51040 -53.65820 -89.13220 -34.93050 19.46060 -65.81320 15.09140 6.29119 -23.98880 3.90122 0.59800 4.10711 62.90660 -7.63238 88.94180 25.38460 6.05440 54.95990 -10.42230 7.25260 26.49480 7.58561 -15.72780 -14.70330 -8.43189 26.56410 10.21470 4.33097 -4.31720 -0.11651 1.05782 -4.00260 -1.18020 -14.55830 4.04082 -21.49230 -6.68243 36.91930 5.14879 17.96670 -11.82700 0.46818 0.91108 -11.47960 2.35828 
2.53604 98.72230 63.01290 -2.28359 -4.66303 -32.23420 2.30264 2.29622 -0.92223 7.07120 4.60294 -1.55257 -1.80617 -3.44394 14.62380 -0.00000 -0.00000 0.00000 -78.00100 -54.06840 -89.31590 -34.99140 19.20860 -65.59440 14.86380 6.35964 -23.90900 4.01360 0.55405 3.47570 62.64700 -7.46990 89.48110 25.20630 5.40905 54.77550 -9.54492 7.43154 27.25380 7.86145 -15.72600 -14.77730 -8.20249 26.70870 9.52225 3.92635 -3.89221 -0.12180 0.99113 -3.89156 -0.92144 -15.45690 3.40965 -21.41730 -6.50976 40.97630 3.22626 17.60600 -12.32870 0.53046 0.87078 -11.08440 2.38712 
2.40732 98.46890 61.91250 -2.60963 -5.40458 -31.52270 2.68015 2.14034 -1.13885 7.42123 4.39808 -1.81398 -1.44342 -4.20106 13.77740 -0.00000 -0.00000 0.00000 -77.86890 -54.46330 -89.87270 -35.11410 19.36440 -65.43340 14.97660 6.34235 -23.82290 4.09182 0.48707 2.58742 62.47930 -7.28554 90.03730 25.18030 5.05523 54.70820 -9.14615 7.51276 27.65010 8.02266 -15.66360 -14.88210 -7.99991 26.76540 8.66600 3.51305 -3.43938 -0.12478 0.92885 -3.74775 -0.73188 -16.71300 3.06851 -21.01450 -5.89518 45.57960 -0.08520 16.81380 -12.75360 0.55832 0.79572 -10.37520 2.48333 
2.24872 98.18440 60.80770 -2.89326 -6.22278 -30.62080 3.12094 1.92287 -1.36431 7.73629 4.13102 -2.01504 -1.23320 -4.71291 12.61960 -0.00000 -0.00000 0.00000 -78.18250 -54.83250 -90.86100 -35.32980 19.91550 -65.32330 15.31590 6.26301 -23.77430 4.07844 0.39051 1.37649 62.49740 -7.05185 90.71980 25.30870 5.07379 54.69450 -9.33298 7.46026 27.63910 8.12449 -15.58720 -14.96260 -7.79972 26.80220 7.58344 3.26761 -2.92717 -0.13341 0.88338 -3.70415 -0.51981 -18.08950 3.04207 -20.31830 -5.14701 50.26650 -3.70632 15.54990 -12.88050 0.51707 0.64151 -8.74003 2.37025 
2.06514 97.87430 59.69050 -3.20551 -7.08907 -29.63240 3.61746 1.66212 -1.57081 8.06533 3.83769 -2.11522 -1.21887 -4.92809 11.17050 -0.00000 -0.00000 0.00000 -78.93620 -55.22650 -92.25770 -35.73370 20.74930 -65.21750 15.70250 6.16062 -23.80690 3.95089 0.27377 -0.07211 62.66660 -6.74755 91.55760 25.48320 5.35386 54.66600 -10.02100 7.28654 27.37540 8.26653 -15.48360 -14.96300 -7.60033 26.88360 6.22144 3.21682 -2.40465 -0.14912 0.81974 -3.70607 -0.14641 -19.29090 3.40794 -19.30700 -4.58837 54.34460 -6.40928 13.72750 -12.28570 0.36229 0.42501 -5.88959 1.71932 
1.86343 97.55060 58.54620 -3.59080 -7.98770 -28.65320 4.16067 1.37364 -1.75876 8.43129 3.53551 -2.13749 -1.45130 -4.76388 9.61222 -0.00000 -0.00000 0.00000 -79.85430 -55.71090 -93.79930 -36.38890 21.64680 -65.08500 16.06300 6.04787 -23.95640 3.74528 0.16368 -1.47404 62.89660 -6.41873 92.45590 25.54360 5.69694 54.57040 -10.91670 7.06261 27.05790 8.52960 -15.34770 -14.88900 -7.44764 27.02600 4.64213 3.17918 -1.97850 -0.16177 0.67725 -3.52893 0.45606 -20.08630 4.28412 -17.89990 -4.25037 57.02550 -7.43780 11.26310 -10.48700 0.09162 0.31327 -2.59051 0.18170 
1.64537 97.20690 57.34740 -4.00998 -8.89093 -27.74730 4.68573 1.07541 -1.93085 8.81113 3.21276 -2.14094 -1.90336 -4.13856 8.22372 -0.00000 -0.00000 0.00000 -80.51420 -56.31320 -95.09000 -37.27910 22.35470 -64.91810 16.39190 5.92185 -24.24480 3.52523 0.08471 -2.52759 63.11180 -6.12119 93.27900 25.38410 5.93123 54.37030 -11.68460 6.86980 26.83130 8.91328 -15.25690 -14.78110 -7.38838 27.23290 3.08561 2.91930 -1.66510 -0.15870 0.46532 -3.08981 1.10570 -20.38360 5.77946 -16.03840 -3.87496 57.65520 -6.71941 8.46784 -7.21928 -0.20171 0.55357 -0.90376 -2.54118 
1.40212 96.79870 56.05110 -4.34691 -9.76243 -26.97370 5.04550 0.81692 -2.04281 9.14912 2.87459 -2.14641 -2.46494 -3.04478 7.24947 -0.00000 -0.00000 0.00000 -80.74670 -56.99670 -95.91310 -38.34670 22.78520 -64.69880 16.68820 5.78354 -24.65980 3.32689 0.04027 -3.15695 63.25050 -5.81826 93.96630 25.01930 5.97546 54.06640 -12.17680 6.74450 26.71610 9.33212 -15.36110 -14.68130 -7.45238 27.53320 1.93908 2.43170 -1.25789 -0.14419 0.33731 -2.75794 1.40016 -20.24520 7.92132 -13.78120 -3.43501 56.02810 -4.57011 6.51875 -2.93480 -0.41073 1.07681 -3.00461 -6.05535 
1.12207 96.26380 54.61370 -4.48562 -10.56250 -26.41390 5.08781 0.66817 -2.01232 9.40186 2.56243 -2.10894 -3.07968 -1.57244 6.78495 -0.00000 -0.00000 0.00000 -80.82880 -57.71570 -96.37410 -39.56250 23.10470 -64.38610 16.93310 5.64785 -25.13110 3.14832 0.01750 -3.50744 63.23990 -5.40146 94.54960 24.54980 5.84298 53.69940 -12.43740 6.68144 26.62850 9.69602 -15.80300 -14.63180 -7.67292 27.98400 1.50273 1.96327 -0.45263 -0.13656 0.47190 -3.11785 1.10417 -19.84400 10.56660 -11.35360 -3.34973 52.60910 -1.53719 6.93217 0.83350 -0.63073 1.38041 -9.57091 -8.59402 
0.81265 95.58170 53.01950 -4.40678 -11.24040 -26.14570 4.80087 0.65899 -1.79673 9.58384 2.31802 -1.96666 -3.82000 0.12625 6.78702 -0.00000 -0.00000 0.00000 -81.19810 -58.48560 -96.68670 -40.93260 23.57580 -63.95810 17.08960 5.53704 -25.58110 3.00640 0.00333 -3.74082 62.96620 -4.80396 95.07270 24.07300 5.61453 53.33020 -12.56350 6.66084 26.49810 10.00550 -16.63660 -14.67960 -8.07896 28.61190 1.79534 1.62679 0.81948 -0.14099 0.83987 -4.25184 0.43551 -19.35650 13.36830 -9.14705 -3.87650 48.37870 1.58023 9.72960 2.44702 -0.96505 1.41456 -19.73710 -7.85286 
